PathFileType	4	(X/Y/Z)	S01_0018_Gait_markers.trc
DataRate	CameraRate	NumFrames	NumMarkers	Units	OrigDataRate	OrigDataStartFrame	OrigNumFrames
250.000000	250.000000	4	54	mm	250.000000	45	363
Frame#	Time	HEAD_ANT			R_HEAD			L_HEAD			C7			R_BACK			L_BACK			STERNUM			R_ACROMION			R_HUM_PROX			R_HUM_ANT			R_HUM_POST			R_ELBOW_LAT			R_ELBOW_MED			R_FOREARM			R_WIRST_LAT			R_WRITS_MED			R_HAND			L_ACROMION			L_HUM_PROX			L_HUM_ANT			L_HUM_POST			L_ELBOW_LAT			L_ELBOW_MED			L_FOREARM			L_WRIST_LAT			L_WIRST_MED			L_HAND			R_ILIAC			SACRUM			L_ILIAC			R_GTROCH			R_THIGH__1			R_THIGH_2			R_THIGH_3			R_THIGH_4			R_SHANK_1			R_SHANK_2			R_SHANK_3			R_SHANK_4			R_HEEL			R_FOOT_LAT			R_FOOT_MED			L_GTROCH			L_THIGH_1			L_THIGH_2			L_THIGH_3			L_THIGH_4			L_SHANK_1			L_SHANK_2			L_SHANK_3			L_SHANK_4			L_HEEL			L_FOOT_LAT			L_FOOT_MED			
		X1	Y1	Z1	X2	Y2	Z2	X3	Y3	Z3	X4	Y4	Z4	X5	Y5	Z5	X6	Y6	Z6	X7	Y7	Z7	X8	Y8	Z8	X9	Y9	Z9	X10	Y10	Z10	X11	Y11	Z11	X12	Y12	Z12	X13	Y13	Z13	X14	Y14	Z14	X15	Y15	Z15	X16	Y16	Z16	X17	Y17	Z17	X18	Y18	Z18	X19	Y19	Z19	X20	Y20	Z20	X21	Y21	Z21	X22	Y22	Z22	X23	Y23	Z23	X24	Y24	Z24	X25	Y25	Z25	X26	Y26	Z26	X27	Y27	Z27	X28	Y28	Z28	X29	Y29	Z29	X30	Y30	Z30	X31	Y31	Z31	X32	Y32	Z32	X33	Y33	Z33	X34	Y34	Z34	X35	Y35	Z35	X36	Y36	Z36	X37	Y37	Z37	X38	Y38	Z38	X39	Y39	Z39	X40	Y40	Z40	X41	Y41	Z41	X42	Y42	Z42	X43	Y43	Z43	X44	Y44	Z44	X45	Y45	Z45	X46	Y46	Z46	X47	Y47	Z47	X48	Y48	Z48	X49	Y49	Z49	X50	Y50	Z50	X51	Y51	Z51	X52	Y52	Z52	X53	Y53	Z53	X54	Y54	Z54	

46	0.18	333.3408813476562	1706.032470703125	-299.3420410156246	274.7680969238281	1650.551879882812	-224.4926757812496	275.337890625	1659.061157226562	-372.2454833984372	140.9761047363281	1487.716430664062	-309.2564086914059	63.5546875	1290.569213867188	-255.0710296630857	67.79608154296875	1299.481323242188	-389.2517395019528	314.5878601074219	1320.084838867188	-303.838684082031	207.3805847167969	1433.3115234375	-134.9526672363278	149.7187042236328	1274.3447265625	-51.99153137207003	203.4432067871094	1184.209350585938	-42.10261535644505	82.39919281005859	1196.321533203125	-47.71332168579075	118.8174438476562	1087.452026367188	-36.98892593383765	107.9490814208984	1084.01025390625	-116.4721298217771	192.7947387695312	893.7021484375	-19.87505912780742	226.3826293945312	821.3106079101562	-53.26444244384747	152.4043121337891	810.005859375	-25.95928192138654	207.0400390625	736.3466796875	2.634018421173259	225.600830078125	1442.57861328125	-474.7437133789059	211.3229217529297	1278.77001953125	-573.563781738281	277.6592407226562	1201.511474609375	-572.0930175781248	157.1991119384766	1199.296752929688	-602.8043823242185	224.1816101074219	1097.651733398438	-612.0859374999998	169.3082733154297	1084.499633789063	-557.334289550781	361.484619140625	947.2698364257814	-577.3796386718748	403.0158996582031	899.0372924804689	-520.3558349609373	366.3238525390625	863.0397338867189	-582.6065673828123	453.2681274414062	827.9110717773439	-561.565246582031	202.4102478027344	1036.55322265625	-148.664855957031	80.70635986328125	1013.007019042969	-317.7377014160154	197.4741363525391	1032.916870117188	-494.2337951660154	177.9605102539062	888.3806762695312	-133.4488983154295	302.3984680175781	628.0717163085938	-162.2017974853514	350.0348510742188	662.2161254882812	-156.5975952148436	388.8768920898438	569.3057250976562	-195.7908477783202	326.530517578125	552.4630126953125	-185.0278930664061	383.0506286621094	338.0269165039063	-185.041030883789	442.3547668457031	332.5067443847657	-197.8124999999999	461.0573425292969	250.1372375488282	-214.0579986572265	398.013427734375	238.9887237548829	-206.6643371582031	408.8533020019531	34.49186325073249	-289.1017761230469	573.7996215820312	30.27842521667485	-209.3887939453125	621.8001708984375	61.0755577087403	-299.2696228027344	151.739013671875	927.4589233398439	-494.6507568359373	155.9352264404297	635.9227294921876	-480.3058776855468	110.6986465454102	671.0057983398439	-496.2115173339842	67.16632843017578	577.4465332031251	-466.1151733398436	128.8562469482422	562.0114135742189	-458.2075195312499	-42.30988311767578	330.1919555664064	-450.4970703124999	-100.9379348754883	343.5442810058595	-458.1471557617187	-152.0381164550781	274.3312072753907	-440.2086486816406	-95.89533996582031	245.2693328857423	-426.4106140136718	-291.5256958007812	147.0307922363282	-373.7595214843749	-158.3838653564453	22.75841331481943	-416.5278015136719	-127.8995132446289	30.09340476989753	-310.4634094238281	
47	0.184	339.1445007324219	1706.427490234375	-298.6023254394527	280.697998046875	1650.890014648438	-223.7676849365231	281.1415100097656	1659.5166015625	-371.5046386718747	147.1576538085938	1487.69775390625	-308.6226196289059	69.61482238769531	1290.46484375	-254.7564544677732	73.91149139404297	1299.616577148438	-388.8493347167966	320.7528076171875	1320.370727539062	-303.333068847656	213.3971862792969	1433.140258789062	-134.2920074462887	156.2865142822266	1273.998413085938	-51.26179504394503	209.6410675048828	1183.875	-41.74144363403294	88.63336944580078	1195.84912109375	-47.50806427001927	125.2333221435547	1087.2568359375	-37.15214157104468	114.271842956543	1083.548828125	-116.412773132324	198.9919891357422	893.227783203125	-20.11590385436992	232.7471160888672	820.7611083984375	-53.73281860351544	158.7386169433594	809.538330078125	-26.3966751098631	213.4368896484375	735.9056396484375	2.5521726608278	231.4980010986328	1442.793579101562	-474.2922363281247	217.0813140869141	1278.786010742188	-572.985168457031	283.0643920898438	1201.537109375	-572.4772949218748	163.5841674804688	1199.344360351563	-602.1849365234373	229.5646667480469	1097.559326171875	-611.4709472656248	174.817626953125	1084.585327148438	-556.575012207031	366.2572326660156	946.7348022460939	-577.490051269531	407.04931640625	897.7902221679689	-520.2473144531248	371.0835266113281	862.5388793945314	-582.6361694335935	457.7948608398438	827.1509399414064	-561.9824218749998	208.5432281494141	1036.861572265625	-148.4809417724607	87.84988403320312	1013.221984863281	-317.475646972656	204.2445068359375	1032.540893554688	-494.258850097656	184.7122497558594	889.2069091796875	-132.9979400634764	309.2253112792969	629.4141235351562	-162.0277404785155	356.7177734375	663.3967895507812	-156.8885040283202	395.6751708984375	570.4360961914062	-195.9340820312499	333.232666015625	553.51806640625	-185.1986541748046	389.6640625	339.2002258300782	-183.9745788574218	448.6788940429688	333.2327270507813	-197.453872680664	466.0932922363281	250.4558868408204	-215.8177642822265	403.0610961914062	239.8614501953126	-206.4213256835937	409.6200256347656	35.13162231445319	-288.5345458984375	575.0888061523438	28.87585639953618	-210.4142913818359	622.9097290039062	58.18971252441413	-300.9041137695312	158.6604309082031	926.9587402343751	-494.7744445800779	163.6926727294922	635.1979980468751	-480.262725830078	118.2456893920898	670.0092163085939	-495.0751953124998	75.09010314941406	576.4234008789064	-465.8893432617186	136.5868225097656	560.7365722656251	-457.8488769531249	-36.14578628540039	330.4176330566407	-450.8921813964843	-94.80579376220703	344.4847106933595	-459.1789550781249	-145.721923828125	276.1472167968751	-441.0793762207031	-91.02552795410156	246.0488281250001	-427.3396301269531	-287.6783752441406	150.9610443115235	-374.6519165039062	-157.7864837646484	23.21539306640634	-416.4124755859375	-127.5790023803711	30.17681694030768	-311.0091857910156	
48	0.188	344.8181457519531	1706.756225585938	-297.8580627441402	286.5801696777344	1651.2236328125	-223.1454162597653	286.9073181152344	1659.942504882812	-370.752044677734	153.3975982666016	1488.0830078125	-307.9602661132809	75.60417938232422	1290.454956054688	-254.6238098144528	80.06202697753906	1299.666381835938	-388.4327087402341	326.6358642578125	1320.554931640625	-302.5582885742185	219.4745788574219	1433.0302734375	-133.6979522705075	162.5550384521484	1273.757202148438	-50.97613525390597	215.9789581298828	1183.567016601562	-41.64020919799778	94.96221160888672	1195.419311523438	-47.36911010742161	131.6817932128906	1086.86083984375	-37.08771896362281	120.7944259643555	1083.099975585938	-116.2586212158201	205.5044860839844	892.7166137695312	-20.43706512451152	239.2955017089844	820.3465576171875	-53.52931976318341	165.0522613525391	808.9838256835938	-27.72748184204083	219.7950134277344	735.5728759765625	2.012753248214885	237.4907836914062	1443.299682617188	-473.7617797851559	222.9883880615234	1279.117309570313	-572.304748535156	288.772705078125	1201.59765625	-571.9437866210935	168.2435913085938	1199.934936523438	-601.5090332031248	234.9120483398438	1097.85888671875	-610.7828979492185	180.4809112548828	1084.888671875	-555.7418823242185	371.25634765625	946.3858642578126	-577.6154174804685	412.9187622070312	897.6995849609376	-520.8358764648435	375.603271484375	862.1613159179689	-582.7884521484373	462.3414916992188	826.3717041015626	-562.3473510742185	214.1909942626953	1036.8623046875	-148.2798156738279	94.35577392578125	1013.806762695313	-317.7199096679685	211.2148132324219	1032.243286132812	-494.3753356933591	191.4658508300781	890.2647705078125	-132.3594970703123	316.1848449707031	630.6138305664062	-162.6121673583983	363.6346130371094	664.760009765625	-157.3380889892577	402.604248046875	571.6074829101562	-196.6123199462889	340.4646606445312	554.7171630859375	-185.003204345703	396.0381164550781	340.4512634277344	-182.9650726318359	454.6023864746094	333.8164672851563	-198.0247192382812	470.7997436523438	250.6139373779297	-216.3534698486328	407.8299560546875	240.9282836914063	-205.0294952392578	410.2533874511719	35.78707122802741	-287.9812927246094	576.01025390625	27.33991050720219	-211.3523864746094	623.4628295898438	55.34799194335944	-302.2933959960938	165.637939453125	926.3242797851564	-494.6132507324216	172.0466003417969	634.8913574218751	-479.9594116210936	126.2956237792969	669.3181152343751	-494.5353393554686	83.45713806152344	575.4637451171876	-466.1532592773436	144.8910369873047	559.9493408203126	-457.7838134765624	-29.85820960998535	330.6367187500001	-451.7560729980468	-88.22038269042969	345.526336669922	-459.5231323242187	-140.4136047363281	277.5135803222657	-441.7734069824218	-85.84591674804688	246.9655914306641	-427.8117980957031	-283.5394592285156	155.0756225585938	-375.5542297363281	-157.126953125	23.67082977294931	-416.3090209960938	-127.1753463745117	30.43382263183601	-311.2345275878906	
49	0.192	350.6849975585938	1707.15234375	-297.1744689941402	292.4939270019531	1651.690185546875	-222.3852996826168	292.6025390625	1660.467651367188	-369.9332885742184	159.5939483642578	1488.454833984375	-307.1831359863278	81.73160552978516	1290.5244140625	-254.4027557373044	86.33290863037109	1299.7490234375	-387.8853759765622	333.3174438476562	1321.20654296875	-302.1605834960935	225.4371185302734	1433.077880859375	-133.189529418945	168.8105621337891	1273.600830078125	-50.681587219238	222.3354644775391	1183.546875	-41.54047775268528	101.358268737793	1195.152954101562	-47.22680282592747	138.36474609375	1086.492065429688	-37.20103836059546	127.1359481811523	1083.156005859375	-116.3429107666013	211.9589538574219	892.5089721679688	-20.62421035766582	245.7772979736328	820.0615844726562	-54.25640869140607	171.7139739990234	808.7847290039062	-27.10253906249982	226.3692779541016	735.2894897460938	1.652456998825236	243.5259552001953	1443.623168945312	-473.3103637695309	228.7185516357422	1279.490966796875	-571.798400878906	294.4434204101562	1201.790405273438	-571.3241577148435	173.8869476318359	1200.297607421875	-600.954650878906	240.2919006347656	1098.1171875	-610.037658691406	186.0634307861328	1085.178833007813	-554.9147949218748	376.113037109375	946.0416870117189	-577.5194702148435	416.7597961425781	896.3953247070314	-520.6105346679685	380.0120239257812	861.8475341796876	-582.854309082031	466.6925354003906	825.6282958984376	-562.9583740234373	220.3026580810547	1037.2060546875	-147.777404785156	99.98160552978516	1014.357849121094	-318.6205749511716	218.3107757568359	1032.0517578125	-494.148742675781	198.2671356201172	891.5906372070312	-131.9173278808592	323.5486755371094	632.2048950195312	-162.4055328369139	370.8240356445312	666.4817504882812	-157.987106323242	409.8609924316406	572.8612670898438	-197.1266326904296	348.0287170410156	556.0275268554688	-184.6588592529296	402.3004760742188	341.5610656738282	-182.2806396484374	460.189208984375	333.8135986328126	-199.0294189453124	474.9600524902344	250.6220245361329	-216.8158874511718	412.2844848632812	241.5858612060547	-203.9591064453124	410.7207641601562	36.2302207946778	-287.729248046875	576.8255004882812	25.04176902771001	-212.283447265625	623.9964599609375	52.75953674316413	-302.8547973632812	172.3499603271484	925.9136352539064	-494.8925170898435	179.8800354003906	634.3281250000001	-479.3275146484374	134.3858947753906	668.8500366210939	-494.9037780761717	91.61667633056641	574.4267578125001	-466.009063720703	153.3170623779297	559.2464599609376	-457.8675842285155	-23.35166358947754	330.7795715332032	-452.3937072753906	-81.63005828857422	346.4442749023439	-460.1642761230468	-134.7154693603516	279.3104553222657	-442.5297546386718	-80.5040283203125	247.7578582763673	-428.8399658203124	-278.7801208496094	159.1517181396485	-376.2635192871093	-156.455322265625	24.13831138610849	-416.2482299804688	-126.6818923950195	30.64126968383796	-311.5123901367188	
